<svg width="156" height="17" viewBox="0 0 156 17" fill="none" xmlns="http://www.w3.org/2000/svg">
<path d="M9.83496 7.75293C9.83496 8.64941 9.58008 9.33496 9.07031 9.80957C8.56641 10.2783 7.85156 10.5127 6.92578 10.5127C6.00586 10.5127 5.26758 10.2051 4.71094 9.58984C4.16016 8.96875 3.88477 8.125 3.88477 7.05859V6.0918C3.88477 5.06055 4.16309 4.2373 4.71973 3.62207C5.28223 3.00098 6.01758 2.69043 6.92578 2.69043C7.86328 2.69043 8.58398 2.93066 9.08789 3.41113C9.5918 3.8916 9.84375 4.56836 9.84375 5.44141H8.56055C8.56055 4.86133 8.41992 4.44824 8.13867 4.20215C7.86328 3.9502 7.45898 3.82422 6.92578 3.82422C6.375 3.82422 5.94141 4.02637 5.625 4.43066C5.30859 4.83496 5.15039 5.39746 5.15039 6.11816V7.11133C5.15039 7.81445 5.30859 8.36816 5.625 8.77246C5.94141 9.17676 6.375 9.37891 6.92578 9.37891C7.46484 9.37891 7.86914 9.25586 8.13867 9.00977C8.41406 8.76367 8.55176 8.34473 8.55176 7.75293H9.83496ZM1.81055 6.59277C1.81055 7.60059 2.04492 8.53516 2.51367 9.39648C2.98242 10.252 3.61816 10.9229 4.4209 11.4092C5.22949 11.8955 6.10254 12.1387 7.04004 12.1387C7.97754 12.1387 8.84766 11.8955 9.65039 11.4092C10.4531 10.9229 11.0889 10.252 11.5576 9.39648C12.0264 8.53516 12.2607 7.60059 12.2607 6.59277C12.2607 5.59668 12.0293 4.67383 11.5664 3.82422C11.1035 2.97461 10.4678 2.30664 9.65918 1.82031C8.85645 1.32812 7.9834 1.08203 7.04004 1.08203C6.10254 1.08203 5.22949 1.3252 4.4209 1.81152C3.6123 2.29199 2.97363 2.95996 2.50488 3.81543C2.04199 4.6709 1.81055 5.59668 1.81055 6.59277ZM0.799805 6.59277C0.799805 5.40918 1.07227 4.31055 1.61719 3.29688C2.16797 2.2832 2.92676 1.48633 3.89355 0.90625C4.86621 0.320312 5.91504 0.0273438 7.04004 0.0273438C8.16504 0.0273438 9.21094 0.320312 10.1777 0.90625C11.1445 1.48633 11.9004 2.2832 12.4453 3.29688C12.9961 4.31055 13.2715 5.40918 13.2715 6.59277C13.2715 7.74707 13.0078 8.82812 12.4805 9.83594C11.9531 10.8438 11.2031 11.6553 10.2305 12.2705C9.26367 12.8799 8.2002 13.1846 7.04004 13.1846C5.88574 13.1846 4.82227 12.8828 3.84961 12.2793C2.88281 11.6699 2.13281 10.8613 1.59961 9.85352C1.06641 8.8457 0.799805 7.75879 0.799805 6.59277ZM28.0635 13H19.6787V11.8311L24.1084 6.90918C24.7646 6.16504 25.2158 5.56152 25.4619 5.09863C25.7139 4.62988 25.8398 4.14648 25.8398 3.64844C25.8398 2.98047 25.6377 2.43262 25.2334 2.00488C24.8291 1.57715 24.29 1.36328 23.6162 1.36328C22.8076 1.36328 22.1777 1.59473 21.7266 2.05762C21.2812 2.51465 21.0586 3.15332 21.0586 3.97363H19.4326C19.4326 2.7959 19.8105 1.84375 20.5664 1.11719C21.3281 0.390625 22.3447 0.0273438 23.6162 0.0273438C24.8057 0.0273438 25.7461 0.34082 26.4375 0.967773C27.1289 1.58887 27.4746 2.41797 27.4746 3.45508C27.4746 4.71484 26.6719 6.21484 25.0664 7.95508L21.6387 11.6729H28.0635V13ZM37.8105 7.54199C37.8105 9.44629 37.4854 10.8613 36.835 11.7871C36.1846 12.7129 35.168 13.1758 33.7852 13.1758C32.4199 13.1758 31.4092 12.7246 30.7529 11.8223C30.0967 10.9141 29.7568 9.56055 29.7334 7.76172V5.59082C29.7334 3.70996 30.0586 2.3125 30.709 1.39844C31.3594 0.484375 32.3789 0.0273438 33.7676 0.0273438C35.1445 0.0273438 36.1582 0.469727 36.8086 1.35449C37.459 2.2334 37.793 3.59277 37.8105 5.43262V7.54199ZM36.1846 5.31836C36.1846 3.94141 35.9912 2.93945 35.6045 2.3125C35.2178 1.67969 34.6055 1.36328 33.7676 1.36328C32.9355 1.36328 32.3291 1.67676 31.9482 2.30371C31.5674 2.93066 31.3711 3.89453 31.3594 5.19531V7.79688C31.3594 9.17969 31.5586 10.2021 31.957 10.8643C32.3613 11.5205 32.9707 11.8486 33.7852 11.8486C34.5879 11.8486 35.1826 11.5381 35.5693 10.917C35.9619 10.2959 36.167 9.31738 36.1846 7.98145V5.31836ZM48.2783 13H39.8936V11.8311L44.3232 6.90918C44.9795 6.16504 45.4307 5.56152 45.6768 5.09863C45.9287 4.62988 46.0547 4.14648 46.0547 3.64844C46.0547 2.98047 45.8525 2.43262 45.4482 2.00488C45.0439 1.57715 44.5049 1.36328 43.8311 1.36328C43.0225 1.36328 42.3926 1.59473 41.9414 2.05762C41.4961 2.51465 41.2734 3.15332 41.2734 3.97363H39.6475C39.6475 2.7959 40.0254 1.84375 40.7812 1.11719C41.543 0.390625 42.5596 0.0273438 43.8311 0.0273438C45.0205 0.0273438 45.9609 0.34082 46.6523 0.967773C47.3438 1.58887 47.6895 2.41797 47.6895 3.45508C47.6895 4.71484 46.8867 6.21484 45.2812 7.95508L41.8535 11.6729H48.2783V13ZM58.0254 7.54199C58.0254 9.44629 57.7002 10.8613 57.0498 11.7871C56.3994 12.7129 55.3828 13.1758 54 13.1758C52.6348 13.1758 51.624 12.7246 50.9678 11.8223C50.3115 10.9141 49.9717 9.56055 49.9482 7.76172V5.59082C49.9482 3.70996 50.2734 2.3125 50.9238 1.39844C51.5742 0.484375 52.5938 0.0273438 53.9824 0.0273438C55.3594 0.0273438 56.373 0.469727 57.0234 1.35449C57.6738 2.2334 58.0078 3.59277 58.0254 5.43262V7.54199ZM56.3994 5.31836C56.3994 3.94141 56.2061 2.93945 55.8193 2.3125C55.4326 1.67969 54.8203 1.36328 53.9824 1.36328C53.1504 1.36328 52.5439 1.67676 52.1631 2.30371C51.7822 2.93066 51.5859 3.89453 51.5742 5.19531V7.79688C51.5742 9.17969 51.7734 10.2021 52.1719 10.8643C52.5762 11.5205 53.1855 11.8486 54 11.8486C54.8027 11.8486 55.3975 11.5381 55.7842 10.917C56.1768 10.2959 56.3818 9.31738 56.3994 7.98145V5.31836ZM72.2285 7.08496H66.6826V11.6201H73.125V13H64.9951V0.203125H73.0371V1.5918H66.6826V5.70508H72.2285V7.08496ZM76.5088 3.49023L76.5615 4.68555C77.2881 3.77148 78.2373 3.31445 79.4092 3.31445C81.4189 3.31445 82.4326 4.44824 82.4502 6.71582V13H80.8242V6.70703C80.8184 6.02148 80.6602 5.51465 80.3496 5.18652C80.0449 4.8584 79.5674 4.69434 78.917 4.69434C78.3896 4.69434 77.9268 4.83496 77.5283 5.11621C77.1299 5.39746 76.8193 5.7666 76.5967 6.22363V13H74.9707V3.49023H76.5088ZM86.5811 3.49023V14.0986C86.5811 15.9268 85.752 16.8408 84.0938 16.8408C83.7363 16.8408 83.4053 16.7881 83.1006 16.6826V15.3818C83.2881 15.4287 83.5342 15.4521 83.8389 15.4521C84.2021 15.4521 84.4775 15.3525 84.665 15.1533C84.8584 14.96 84.9551 14.6201 84.9551 14.1338V3.49023H86.5811ZM84.7881 0.967773C84.7881 0.709961 84.8672 0.490234 85.0254 0.308594C85.1895 0.121094 85.4268 0.0273438 85.7373 0.0273438C86.0537 0.0273438 86.2939 0.118164 86.458 0.299805C86.6221 0.481445 86.7041 0.704102 86.7041 0.967773C86.7041 1.23145 86.6221 1.45117 86.458 1.62695C86.2939 1.80273 86.0537 1.89062 85.7373 1.89062C85.4209 1.89062 85.1836 1.80273 85.0254 1.62695C84.8672 1.45117 84.7881 1.23145 84.7881 0.967773ZM88.7783 8.15723C88.7783 7.22559 88.96 6.3877 89.3232 5.64355C89.6924 4.89941 90.2021 4.3252 90.8525 3.9209C91.5088 3.5166 92.2559 3.31445 93.0938 3.31445C94.3887 3.31445 95.4346 3.7627 96.2314 4.65918C97.0342 5.55566 97.4355 6.74805 97.4355 8.23633V8.35059C97.4355 9.27637 97.2568 10.1084 96.8994 10.8467C96.5479 11.5791 96.041 12.1504 95.3789 12.5605C94.7227 12.9707 93.9668 13.1758 93.1113 13.1758C91.8223 13.1758 90.7764 12.7275 89.9736 11.8311C89.1768 10.9346 88.7783 9.74805 88.7783 8.27148V8.15723ZM90.4131 8.35059C90.4131 9.40527 90.6562 10.252 91.1426 10.8906C91.6348 11.5293 92.291 11.8486 93.1113 11.8486C93.9375 11.8486 94.5938 11.5264 95.0801 10.8818C95.5664 10.2314 95.8096 9.32324 95.8096 8.15723C95.8096 7.11426 95.5605 6.27051 95.0625 5.62598C94.5703 4.97559 93.9141 4.65039 93.0938 4.65039C92.291 4.65039 91.6436 4.96973 91.1514 5.6084C90.6592 6.24707 90.4131 7.16113 90.4131 8.35059ZM103.421 13.1758C102.132 13.1758 101.083 12.7539 100.274 11.9102C99.4658 11.0605 99.0615 9.92676 99.0615 8.50879V8.20996C99.0615 7.2666 99.2402 6.42578 99.5977 5.6875C99.9609 4.94336 100.465 4.36328 101.109 3.94727C101.76 3.52539 102.463 3.31445 103.219 3.31445C104.455 3.31445 105.416 3.72168 106.102 4.53613C106.787 5.35059 107.13 6.5166 107.13 8.03418V8.71094H100.688C100.711 9.64844 100.983 10.4072 101.505 10.9873C102.032 11.5615 102.7 11.8486 103.509 11.8486C104.083 11.8486 104.569 11.7314 104.968 11.4971C105.366 11.2627 105.715 10.9521 106.014 10.5654L107.007 11.3389C106.21 12.5635 105.015 13.1758 103.421 13.1758ZM103.219 4.65039C102.562 4.65039 102.012 4.89062 101.566 5.37109C101.121 5.8457 100.846 6.51367 100.74 7.375H105.504V7.25195C105.457 6.42578 105.234 5.78711 104.836 5.33594C104.438 4.87891 103.898 4.65039 103.219 4.65039ZM112.966 13.1758C111.677 13.1758 110.628 12.7539 109.819 11.9102C109.011 11.0605 108.606 9.92676 108.606 8.50879V8.20996C108.606 7.2666 108.785 6.42578 109.143 5.6875C109.506 4.94336 110.01 4.36328 110.654 3.94727C111.305 3.52539 112.008 3.31445 112.764 3.31445C114 3.31445 114.961 3.72168 115.646 4.53613C116.332 5.35059 116.675 6.5166 116.675 8.03418V8.71094H110.232C110.256 9.64844 110.528 10.4072 111.05 10.9873C111.577 11.5615 112.245 11.8486 113.054 11.8486C113.628 11.8486 114.114 11.7314 114.513 11.4971C114.911 11.2627 115.26 10.9521 115.559 10.5654L116.552 11.3389C115.755 12.5635 114.56 13.1758 112.966 13.1758ZM112.764 4.65039C112.107 4.65039 111.557 4.89062 111.111 5.37109C110.666 5.8457 110.391 6.51367 110.285 7.375H115.049V7.25195C115.002 6.42578 114.779 5.78711 114.381 5.33594C113.982 4.87891 113.443 4.65039 112.764 4.65039ZM124.559 3.49023L124.603 4.54492C125.3 3.72461 126.24 3.31445 127.424 3.31445C128.754 3.31445 129.659 3.82422 130.14 4.84375C130.456 4.38672 130.866 4.01758 131.37 3.73633C131.88 3.45508 132.48 3.31445 133.172 3.31445C135.258 3.31445 136.318 4.41895 136.354 6.62793V13H134.728V6.72461C134.728 6.04492 134.572 5.53809 134.262 5.2041C133.951 4.86426 133.43 4.69434 132.697 4.69434C132.094 4.69434 131.593 4.87598 131.194 5.23926C130.796 5.59668 130.564 6.08008 130.5 6.68945V13H128.865V6.76855C128.865 5.38574 128.188 4.69434 126.835 4.69434C125.769 4.69434 125.039 5.14844 124.646 6.05664V13H123.021V3.49023H124.559ZM144.352 10.4775C144.352 10.0381 144.185 9.69824 143.851 9.45801C143.522 9.21191 142.945 9.00098 142.119 8.8252C141.299 8.64941 140.646 8.43848 140.159 8.19238C139.679 7.94629 139.321 7.65332 139.087 7.31348C138.858 6.97363 138.744 6.56934 138.744 6.10059C138.744 5.32129 139.072 4.66211 139.729 4.12305C140.391 3.58398 141.234 3.31445 142.26 3.31445C143.338 3.31445 144.211 3.59277 144.879 4.14941C145.553 4.70605 145.89 5.41797 145.89 6.28516H144.255C144.255 5.83984 144.064 5.45605 143.684 5.13379C143.309 4.81152 142.834 4.65039 142.26 4.65039C141.668 4.65039 141.205 4.7793 140.871 5.03711C140.537 5.29492 140.37 5.63184 140.37 6.04785C140.37 6.44043 140.525 6.73633 140.836 6.93555C141.146 7.13477 141.706 7.3252 142.515 7.50684C143.329 7.68848 143.988 7.90527 144.492 8.15723C144.996 8.40918 145.368 8.71387 145.608 9.07129C145.854 9.42285 145.978 9.85352 145.978 10.3633C145.978 11.2129 145.638 11.8955 144.958 12.4111C144.278 12.9209 143.396 13.1758 142.312 13.1758C141.551 13.1758 140.877 13.041 140.291 12.7715C139.705 12.502 139.245 12.127 138.911 11.6465C138.583 11.1602 138.419 10.6357 138.419 10.0732H140.045C140.074 10.6182 140.291 11.0518 140.695 11.374C141.105 11.6904 141.645 11.8486 142.312 11.8486C142.928 11.8486 143.42 11.7256 143.789 11.4795C144.164 11.2275 144.352 10.8936 144.352 10.4775ZM147.709 8.16602C147.709 6.68359 148.052 5.50586 148.737 4.63281C149.423 3.75391 150.331 3.31445 151.462 3.31445C152.622 3.31445 153.527 3.72461 154.178 4.54492L154.257 3.49023H155.742V12.7715C155.742 14.002 155.376 14.9717 154.644 15.6807C153.917 16.3896 152.938 16.7441 151.708 16.7441C151.022 16.7441 150.352 16.5977 149.695 16.3047C149.039 16.0117 148.538 15.6104 148.192 15.1006L149.036 14.125C149.733 14.9863 150.586 15.417 151.594 15.417C152.385 15.417 153 15.1943 153.439 14.749C153.885 14.3037 154.107 13.6768 154.107 12.8682V12.0508C153.457 12.8008 152.569 13.1758 151.444 13.1758C150.331 13.1758 149.429 12.7275 148.737 11.8311C148.052 10.9346 147.709 9.71289 147.709 8.16602ZM149.344 8.35059C149.344 9.42285 149.563 10.2666 150.003 10.8818C150.442 11.4912 151.058 11.7959 151.849 11.7959C152.874 11.7959 153.627 11.3301 154.107 10.3984V6.05664C153.609 5.14844 152.862 4.69434 151.866 4.69434C151.075 4.69434 150.457 5.00195 150.012 5.61719C149.566 6.23242 149.344 7.14355 149.344 8.35059Z" fill="#4A4A4A"/>
</svg>
