<svg width="284" height="331" viewBox="0 0 284 331" fill="none" xmlns="http://www.w3.org/2000/svg">
<path d="M264.125 192.472C264.125 235.8 229.001 270.925 185.672 270.925M185.672 270.925C142.344 270.925 107.219 235.8 107.219 192.472M185.672 270.925V299.952L239.02 250.004" stroke="url(#paint0_linear)" stroke-width="26.151"/>
<path d="M222.284 176.781C222.284 145.007 196.526 119.249 164.751 119.249C132.977 119.249 107.219 145.007 107.219 176.781" stroke="#53A8CB" stroke-width="26.151"/>
<path d="M107.182 107.797C105.95 91.592 102.527 70.6989 99.927 56.244C102.08 66.0834 104.852 79.5484 106.305 89.7169C109.382 111.259 108.835 141.953 108.056 160.685C108.04 161.09 107.94 161.488 107.766 161.855C107.842 159.121 107.914 156.125 107.972 152.954C108.225 139.189 108.237 121.681 107.182 107.797Z" stroke="#53A8CB" stroke-width="26.151"/>
<path d="M154.28 61.1537C153.057 46.4706 149.709 27.6951 147.123 14.5134C149.287 23.5293 152.069 35.8529 153.518 45.1114C156.682 65.3199 155.987 94.5366 155.17 111.4C155.153 111.397 155.143 111.392 155.136 111.389C155.112 111.379 155.067 111.353 155.015 111.299C154.964 111.245 154.926 111.184 154.903 111.126C154.883 111.077 154.869 111.016 154.872 110.925C155.276 97.6222 155.589 76.8632 154.28 61.1537Z" stroke="#53A8CB" stroke-width="26.151"/>
<path d="M197.746 86.4359C198.695 77.8212 200.846 67.5795 202.933 58.8525C201.189 64.6151 199.402 71.001 198.36 76.0348C195.593 89.401 195.912 108.761 196.64 121.825C196.674 121.804 196.719 121.771 196.769 121.719C196.919 121.56 196.996 121.36 196.989 121.137C196.67 111.224 196.54 97.3886 197.746 86.4359Z" stroke="#53A8CB" stroke-width="26.151"/>
<path d="M31.3698 138.725C28.6711 137.558 27.9895 134.527 29.0653 132.669L30.3148 130.511C31.3675 128.692 33.3419 128.432 34.5891 129.177L41.2955 117.952L34.5891 129.177C39.5478 132.139 44.6679 135.358 48.4884 138.114C59.8497 146.311 66.2314 154.59 69.1165 158.975C64.3241 155.275 58.3516 151.791 52.5945 148.76C45.5563 145.054 37.961 141.575 31.3698 138.725ZM73.1944 167.329C73.1935 167.337 73.1928 167.341 73.1926 167.341C73.1925 167.341 73.1929 167.337 73.1944 167.329Z" stroke="#53A8CB" stroke-width="26.151"/>
<mask id="path-7-inside-1" fill="white">
<path d="M249.163 103.364C250.173 97.371 255.411 93.0977 261.489 93.0977C269.6 93.0977 275.706 100.547 274.476 108.565C273.206 116.844 271.971 126.952 271.971 134.939C271.971 151.374 277.201 176.781 277.201 176.781H251.05C251.05 176.781 245.82 151.374 245.82 134.939C245.82 125.178 247.665 112.252 249.163 103.364Z"/>
</mask>
<path d="M277.201 176.781V202.932H309.283L302.815 171.508L277.201 176.781ZM251.05 176.781L225.436 182.054L229.734 202.932H251.05V176.781ZM277.201 150.63H251.05V202.932H277.201V150.63ZM248.627 104.6C247.318 113.135 245.82 124.868 245.82 134.939H298.122C298.122 129.035 299.094 120.553 300.325 112.53L248.627 104.6ZM245.82 134.939C245.82 145.28 247.401 157.4 248.745 166.042C249.447 170.554 250.147 174.503 250.673 177.332C250.936 178.75 251.158 179.898 251.317 180.706C251.397 181.11 251.461 181.43 251.506 181.657C251.529 181.771 251.548 181.862 251.561 181.928C251.568 181.961 251.573 181.988 251.578 182.009C251.58 182.02 251.582 182.029 251.583 182.036C251.584 182.04 251.585 182.043 251.585 182.046C251.586 182.048 251.586 182.049 251.586 182.05C251.587 182.052 251.587 182.054 277.201 176.781C302.815 171.508 302.815 171.51 302.815 171.511C302.815 171.511 302.816 171.513 302.816 171.513C302.816 171.515 302.816 171.516 302.816 171.516C302.817 171.518 302.817 171.517 302.816 171.516C302.816 171.512 302.814 171.502 302.81 171.487C302.804 171.456 302.793 171.402 302.778 171.326C302.747 171.173 302.699 170.931 302.635 170.608C302.508 169.963 302.321 168.997 302.094 167.777C301.639 165.328 301.032 161.898 300.426 158.004C299.155 149.834 298.122 141.033 298.122 134.939H245.82ZM251.05 176.781C276.664 171.508 276.664 171.51 276.664 171.511C276.664 171.511 276.665 171.513 276.665 171.513C276.665 171.515 276.665 171.516 276.665 171.516C276.666 171.518 276.666 171.517 276.665 171.516C276.665 171.512 276.663 171.502 276.659 171.487C276.653 171.456 276.642 171.402 276.627 171.326C276.596 171.173 276.548 170.931 276.484 170.608C276.357 169.963 276.17 168.997 275.943 167.777C275.488 165.328 274.881 161.898 274.275 158.004C273.004 149.834 271.971 141.033 271.971 134.939H219.669C219.669 145.28 221.25 157.4 222.594 166.042C223.296 170.554 223.996 174.503 224.522 177.332C224.785 178.75 225.007 179.898 225.166 180.706C225.246 181.11 225.31 181.43 225.355 181.657C225.378 181.771 225.397 181.862 225.41 181.928C225.417 181.961 225.422 181.988 225.427 182.009C225.429 182.02 225.431 182.029 225.432 182.036C225.433 182.04 225.434 182.043 225.434 182.046C225.435 182.048 225.435 182.049 225.435 182.05C225.435 182.052 225.436 182.054 251.05 176.781ZM271.971 134.939C271.971 127.553 273.468 116.505 274.95 107.711L223.376 99.0171C221.861 108 219.669 122.804 219.669 134.939H271.971ZM261.489 119.249C252.798 119.249 247.548 111.639 248.627 104.6L300.325 112.53C303.864 89.4549 286.403 66.9466 261.489 66.9466V119.249ZM261.489 66.9466C243.124 66.9466 226.587 79.9701 223.376 99.0171L274.95 107.711C273.76 114.772 267.698 119.249 261.489 119.249V66.9466Z" fill="#53A8CB" mask="url(#path-7-inside-1)"/>
<rect x="215.746" y="167.105" width="13.0755" height="40.2726" rx="6.53775" stroke="#53A8CB" stroke-width="13.0755"/>
<circle cx="270.925" cy="71.6536" r="13.0755" fill="#53A8CB"/>
<defs>
<linearGradient id="paint0_linear" x1="185.672" y1="192.472" x2="185.672" y2="270.925" gradientUnits="userSpaceOnUse">
<stop stop-color="#EC99BA"/>
<stop offset="1" stop-color="#8881B9"/>
</linearGradient>
</defs>
</svg>
